HIERARCHY
ROOT Hips
{
	OFFSET -3.958830 18.904000 13.208200
	CHANNELS 6 Xposition Yposition Zposition Zrotation Yrotation Xrotation 
	JOINT LHipJoint
	{
		OFFSET 0.000000 0.000000 0.000000
		CHANNELS 3 Zrotation Yrotation Xrotation
		JOINT LeftUpLeg
		{
			OFFSET 1.800000 -1.400000 0.085000
			CHANNELS 3 Zrotation Yrotation Xrotation
			JOINT LeftLeg
			{
				OFFSET 2.215000 -6.000000 0.000000
				CHANNELS 3 Zrotation Yrotation Xrotation
				JOINT LeftFoot
				{
					OFFSET 2.500000 -6.900000 0.000000
					CHANNELS 3 Zrotation Yrotation Xrotation
					JOINT LeftToeBase
					{
						OFFSET 0.200000 -0.500000 1.950000
						CHANNELS 3 Zrotation Yrotation Xrotation
						End Site
						{
							OFFSET 0.000000 0.000000 0.000000
						}
					}
				}
			}
		}
	}
	JOINT RHipJoint
	{
		OFFSET 0.000000 0.000000 0.000000
		CHANNELS 3 Zrotation Yrotation Xrotation
		JOINT RightUpLeg
		{
			OFFSET -1.800000 -1.400000 0.085000
			CHANNELS 3 Zrotation Yrotation Xrotation
			JOINT RightLeg
			{
				OFFSET -2.215000 -6.000000 0.000000
				CHANNELS 3 Zrotation Yrotation Xrotation
				JOINT RightFoot
				{
					OFFSET -2.500000 -6.900000 0.000000
					CHANNELS 3 Zrotation Yrotation Xrotation
					JOINT RightToeBase
					{
						OFFSET -0.200000 -0.500000 1.950000
						CHANNELS 3 Zrotation Yrotation Xrotation
						End Site
						{
							OFFSET 0.000000 0.000000 0.000000
						}
					}
				}
			}
		}
	}
	JOINT LowerBack
	{
		OFFSET 0.000000 0.000000 0.000000
		CHANNELS 3 Zrotation Yrotation Xrotation
		JOINT Spine
		{
			OFFSET -0.087000 1.940000 -0.288900
			CHANNELS 3 Zrotation Yrotation Xrotation
			JOINT Spine1
			{
				OFFSET 0.000000 1.950000 0.060000
				CHANNELS 3 Zrotation Yrotation Xrotation
				JOINT Neck
				{
					OFFSET 0.000000 0.000000 0.000000
					CHANNELS 3 Zrotation Yrotation Xrotation
					JOINT Neck1
					{
						OFFSET 0.000000 1.600000 0.340000
						CHANNELS 3 Zrotation Yrotation Xrotation
						JOINT Head
						{
							OFFSET 0.000000 1.667000 -0.240000
							CHANNELS 3 Zrotation Yrotation Xrotation
							End Site
							{
								OFFSET 0.000000 0.000000 0.000000
							}
						}
					}
				}
				JOINT LeftShoulder
				{
					OFFSET 0.000000 0.000000 0.000000
					CHANNELS 3 Zrotation Yrotation Xrotation
					JOINT LeftArm
					{
						OFFSET 2.700000 1.550000 -0.730000
						CHANNELS 3 Zrotation Yrotation Xrotation
						JOINT LeftForeArm
						{
							OFFSET 5.450000 0.000000 0.000000
							CHANNELS 3 Zrotation Yrotation Xrotation
							JOINT LeftHand
							{
								OFFSET 3.450000 0.000000 0.000000
								CHANNELS 3 Zrotation Yrotation Xrotation
								JOINT LeftHandIndex1
								{
									OFFSET 0.750000 0.000000 0.000000
									CHANNELS 3 Zrotation Yrotation Xrotation
									End Site
									{
										OFFSET 0.000000 0.000000 0.000000
									}
								}
							}
						}
					}
				}
				JOINT RightShoulder
				{
					OFFSET 0.000000 0.000000 0.000000
					CHANNELS 3 Zrotation Yrotation Xrotation
					JOINT RightArm
					{
						OFFSET -2.700000 1.550000 -0.730000
						CHANNELS 3 Zrotation Yrotation Xrotation
						JOINT RightForeArm
						{
							OFFSET -5.450000 0.000000 0.000000
							CHANNELS 3 Zrotation Yrotation Xrotation
							JOINT RightHand
							{
								OFFSET -3.450000 0.000000 0.000000
								CHANNELS 3 Zrotation Yrotation Xrotation
								JOINT RightHandIndex1
								{
									OFFSET -0.750000 0.000000 0.000000
									CHANNELS 3 Zrotation Yrotation Xrotation
									End Site
									{
										OFFSET 0.000000 0.000000 0.000000
									}
								}
							}
						}
					}
				}
			}
		}
	}
}
MOTION
Frames: 5
Frame Time: 0.016667
-0.975650 17.298950 -3.732930 8.290930 24.455795 -16.235580 -15.902702 8.669414 9.161946 -42.900295 -33.326553 -70.495888 13.899854 0.491945 23.248811 -0.890341 2.789261 3.520588 0.175480 -0.167500 0.096050 18.310192 -7.962383 2.106923 -18.630266 5.047291 7.503565 24.223743 -8.386048 7.774833 -0.971539 -5.931422 2.290245 -0.091480 0.088230 0.047380 -2.541293 -2.486512 -10.225087 6.680085 2.837248 55.092103 -4.266909 5.440471 11.308015 6.529093 -10.586853 -19.122874 -22.918240 6.927987 43.525328 1.792520 -5.573720 -30.015280 -26.928738 -25.457014 10.453498 -44.854879 10.890427 -15.598484 -15.864897 -34.965232 -0.502063 -3.087816 2.841742 0.960730 -0.307340 0.098470 -0.040130 15.546548 43.169419 13.387846 22.870279 20.624926 -26.657343 -117.792159 45.704874 -87.669291 2.141816 -0.298780 -0.311670 0.505230 0.370780 -0.262130 
-0.970760 17.332570 -3.724110 8.159289 24.018132 -17.004554 -15.923512 8.665976 9.218462 -42.753404 -33.854633 -71.406703 17.251848 -0.312189 26.421428 -0.787449 3.433165 3.274638 0.169090 -0.167960 0.096560 18.310051 -7.976621 2.034902 -18.063829 4.670624 8.426462 23.004245 -8.308510 7.679654 -0.958806 -5.893679 2.318864 -0.088380 0.094830 0.045910 -2.490461 -2.489647 -10.206681 6.363827 3.140850 55.768900 -4.312041 5.711024 11.712213 6.754073 -10.261988 -18.726168 -21.569261 6.499236 42.788075 1.308190 -5.326380 -30.068150 -25.704015 -24.867113 10.411939 -44.816585 11.362538 -16.567294 -20.581898 -37.159773 0.591534 -3.106223 2.860107 0.949910 -0.291160 0.089000 -0.045780 13.703448 42.859387 12.887836 22.035189 21.043590 -25.992716 -119.575798 42.662961 -88.091272 2.084159 -0.457627 -0.316550 0.506450 0.373740 -0.266860 
-0.953180 17.432670 -3.701950 9.295153 22.451936 -18.610660 -15.930502 8.979521 8.962886 -38.912390 -33.616757 -75.271423 19.309358 -1.379727 36.809070 -0.471245 5.250990 2.605301 0.158480 -0.165280 0.079200 18.253628 -8.129939 1.981074 -18.356435 4.440294 10.451377 20.538303 -8.280217 7.822513 -0.950602 -5.930435 2.324032 -0.094180 0.117670 0.059760 -2.414977 -2.609658 -10.028611 4.441456 4.830662 57.730266 -3.868754 6.688201 12.227323 6.719777 -9.925887 -18.101385 -19.965816 6.124130 41.451828 1.519750 -5.121590 -29.828190 -22.790144 -23.456646 10.505449 -45.376023 12.719177 -18.549412 -30.961845 -41.571766 3.629608 -3.142278 2.922989 0.922890 -0.264950 0.080260 -0.039510 10.617463 42.148407 11.956146 20.240096 21.727802 -24.868014 -122.573462 37.631321 -88.131711 2.005749 -0.706509 -0.305180 0.496270 0.372250 -0.253040 
-0.926990 17.568580 -3.664130 11.242477 18.362229 -20.424824 -15.949932 9.700582 8.351253 -35.133826 -30.980851 -79.027700 21.546566 -1.950197 44.520082 -0.174572 6.847524 2.035271 0.137150 -0.169260 0.055630 18.114475 -8.424344 1.910785 -18.976014 4.338289 11.709204 16.965004 -8.202203 8.925574 -0.889591 -5.875515 2.370844 -0.101490 0.138950 0.054200 -2.261297 -2.921935 -9.696021 0.936844 8.654825 59.125617 -2.483091 9.145074 12.626961 6.451509 -9.442908 -17.397901 -18.297238 5.691641 40.565357 1.592230 -4.919010 -28.557010 -20.110160 -21.225884 10.328747 -45.982379 14.027322 -19.748607 -43.994892 -43.391752 7.695956 -3.208382 2.968130 0.881140 -0.232550 0.058260 -0.035290 8.127826 41.034337 10.972231 17.376458 22.048977 -23.383920 -125.664962 32.955342 -87.486443 1.944598 -0.926641 -0.299710 0.484970 0.366990 -0.242110 
-0.903400 17.722910 -3.636960 13.054415 14.590507 -21.473938 -15.987929 10.238096 7.884710 -32.281801 -28.290252 -80.529901 23.622343 -2.385120 51.391574 0.120386 8.353368 1.523408 0.110720 -0.176950 0.013660 18.005396 -8.622854 1.790810 -19.725877 4.133639 11.828247 13.907977 -8.008917 9.794951 -0.806131 -5.786208 2.423403 -0.104870 0.190530 0.074880 -2.095838 -3.180208 -9.436707 -2.746317 12.238408 58.712643 -1.028399 11.247370 13.352837 6.006679 -8.634964 -16.533559 -15.975193 5.421084 39.705964 1.411220 -4.547940 -25.917800 -18.180737 -19.068806 10.176376 -45.318475 15.577392 -19.853533 -57.549854 -42.422619 11.307798 -3.323399 3.018572 0.815940 -0.163510 0.019220 -0.030700 6.604755 39.456936 9.938716 14.193101 22.500077 -21.626613 -128.566442 28.110558 -84.908506 1.880226 -1.142684 -0.286720 0.463230 0.379830 -0.222790 
